<svg id="Kristallbank" xmlns="http://www.w3.org/2000/svg" viewBox="0 0 1000 1000">
    <defs>
        <style>
            .cls-1 {
                fill: navy;
            }

            .cls-2 {
                fill: maroon;
            }

            .cls-3 {
                fill: #0077df;
            }

            .cls-4 {
                fill: #94c7ff;
            }

            .cls-5 {
                fill: #ffd36a;
            }
        </style>
    </defs>
    <title>logo</title>
    <polygon class="cls-1" points="688.87 159.16 746.46 153.86 695.74 294.74 688.87 159.16" />
    <polygon class="cls-2" points="600.97 164.7 681.51 158.64 691.33 296.48 600.97 164.7" />
    <polygon class="cls-1" points="400.13 178.45 587.94 166.42 383.3 420.76 400.13 178.45" />
    <polygon class="cls-2" points="155 368.85 238.93 297.43 408.76 471.89 155 368.85" />
    <polygon class="cls-1" points="211.92 612.31 183.34 541.94 410.56 482.45 211.92 612.31" />
    <polygon class="cls-2" points="415.94 495.91 216.74 619.51 352.29 764.37 415.94 495.91" />
    <polygon class="cls-3" points="391.41 185.14 243.84 292.44 376.74 428.05 391.41 185.14" />
    <polygon class="cls-4" points="153.92 377.43 178.66 529.42 395.57 477.6 153.92 377.43" />
    <polygon class="cls-2" points="759.64 261.83 840 330.63 806.41 572.18 745.61 669.84 759.64 261.83" />
    <polygon class="cls-5" points="358.66 768.38 470.83 851.62 737.52 671.5 749.51 268.51 420.81 505.7 358.66 768.38" />
    <polygon class="cls-4" points="678.49 290.32 593.03 172.47 391.61 430.64 678.49 290.32" />
    <polygon class="cls-5" points="799.07 148.38 762.12 154.55 756.88 236.82 842.93 311.15 846.08 207.03 799.07 148.38" />
    <polygon class="cls-4" points="746.84 165.25 695.74 302.85 750.77 261.15 746.84 165.25" />
    <polygon class="cls-3" points="406.05 433.83 424.35 489.05 681.71 301.83 406.05 433.83" />
</svg>